<svg width="180" height="47" viewBox="0 0 180 47" fill="none" xmlns="http://www.w3.org/2000/svg">
<path d="M0.438477 39.0518L15.1113 0.453125H21.6787L7.00586 39.0518H0.438477ZM16.7959 39.0518L31.4688 0.453125H38.0361L23.3633 39.0518H16.7959Z" fill="#FF0000"/>
<path d="M38.0605 36V31.7275L41.4785 30.9951V14.6133L37.6943 13.8809V9.58398H48.1191L48.4365 13.3682C49.3154 12.0173 50.3978 10.9674 51.6836 10.2188C52.9857 9.47005 54.4668 9.0957 56.127 9.0957C58.7311 9.0957 60.7738 9.93392 62.2549 11.6104C63.7523 13.2868 64.501 15.9154 64.501 19.4961V30.9951L67.9189 31.7275V36H54.2959V31.7275L57.3477 30.9951V19.5205C57.3477 17.7464 56.9896 16.4932 56.2734 15.7607C55.5736 15.012 54.54 14.6377 53.1729 14.6377C51.1872 14.6377 49.6654 15.4678 48.6074 17.1279V30.9951L51.4883 31.7275V36H38.0605ZM81.5908 36.5127C79.6214 36.5127 77.7822 36.3255 76.0732 35.9512C74.3805 35.5768 72.7529 35.0397 71.1904 34.3398L71.1172 26.8691H76.0732L77.0254 30.6777C77.5788 30.9544 78.181 31.1742 78.832 31.3369C79.4993 31.4997 80.2562 31.5811 81.1025 31.5811C82.6976 31.5811 83.8206 31.3206 84.4717 30.7998C85.1227 30.279 85.4482 29.6279 85.4482 28.8467C85.4482 28.1143 85.0983 27.4714 84.3984 26.918C83.6986 26.3483 82.3232 25.8519 80.2725 25.4287C77.1312 24.7777 74.82 23.7686 73.3389 22.4014C71.874 21.0342 71.1416 19.2845 71.1416 17.1523C71.1416 15.7038 71.5078 14.3691 72.2402 13.1484C72.9889 11.9277 74.1201 10.9593 75.6338 10.2432C77.1637 9.51074 79.1169 9.14453 81.4932 9.14453C83.4788 9.14453 85.2936 9.33984 86.9375 9.73047C88.5977 10.1048 89.9893 10.6012 91.1123 11.2197L91.1855 18.4463H86.2539L85.4971 14.9795C84.5531 14.3285 83.3649 14.0029 81.9326 14.0029C80.6956 14.0029 79.7354 14.2633 79.0518 14.7842C78.3844 15.2887 78.0508 15.9316 78.0508 16.7129C78.0508 17.3965 78.3438 18.015 78.9297 18.5684C79.5319 19.1055 80.8421 19.6019 82.8604 20.0576C86.1318 20.8063 88.5163 21.8073 90.0137 23.0605C91.5111 24.2975 92.2598 26.0391 92.2598 28.2852C92.2598 30.7428 91.3646 32.7285 89.5742 34.2422C87.8001 35.7559 85.139 36.5127 81.5908 36.5127ZM108.153 36.5127C105.614 36.5127 103.401 35.9593 101.513 34.8525C99.641 33.7295 98.1842 32.1914 97.1426 30.2383C96.1172 28.2852 95.6045 26.0553 95.6045 23.5488V22.5723C95.6045 19.9518 96.0928 17.6325 97.0693 15.6143C98.0459 13.5798 99.4212 11.9847 101.195 10.8291C102.986 9.65723 105.093 9.07943 107.519 9.0957C111.083 9.0957 113.809 10.1455 115.697 12.2451C117.585 14.3285 118.529 17.2581 118.529 21.0342V24.916H103.002L102.953 25.0625C103.083 26.804 103.661 28.2363 104.687 29.3594C105.712 30.4824 107.169 31.0439 109.057 31.0439C110.359 31.0439 111.571 30.8812 112.694 30.5557C113.834 30.2139 114.94 29.7174 116.015 29.0664L117.943 33.4609C116.853 34.3398 115.478 35.0723 113.817 35.6582C112.174 36.2279 110.285 36.5127 108.153 36.5127ZM103.051 20.2041H111.864V19.5693C111.864 17.9743 111.531 16.7129 110.863 15.7852C110.212 14.8411 109.138 14.3691 107.641 14.3691C106.208 14.3691 105.118 14.9144 104.369 16.0049C103.62 17.0791 103.157 18.4382 102.978 20.082L103.051 20.2041ZM122.362 36V31.7275L125.78 30.9951V14.6133L121.996 13.8809V9.58398H132.421L132.689 12.8555L132.738 13.4414C134.04 10.5443 135.993 9.0957 138.598 9.0957C139.021 9.0957 139.477 9.12826 139.965 9.19336C140.469 9.25846 140.925 9.35612 141.332 9.48633L140.575 16.0537L137.035 15.8584C136.026 15.8096 135.204 15.9805 134.569 16.3711C133.951 16.7617 133.397 17.3232 132.909 18.0557V30.9951L136.327 31.7275V36H122.362ZM151.22 46.6689C150.618 46.6689 149.966 46.612 149.267 46.498C148.567 46.4004 147.908 46.262 147.289 46.083L148.095 40.8584C148.404 40.9235 148.746 40.9723 149.12 41.0049C149.494 41.0374 149.82 41.0537 150.097 41.0537C152.245 41.0537 153.677 40.012 154.394 37.9287L154.979 36.293L146.142 14.3447L142.895 13.8809V9.58398H156.908V13.8809L153.686 14.3691L157.836 26.0146L158.349 27.4551H158.495L163.402 14.3203L160.253 13.8809V9.58398H173.314V13.8809L170.336 14.2959L160.253 39.9307C159.765 41.1514 159.138 42.2744 158.373 43.2998C157.624 44.3252 156.664 45.139 155.492 45.7412C154.337 46.3597 152.912 46.6689 151.22 46.6689ZM172.802 36V29.75H179.906V36H172.802Z" fill="#272829"/>
</svg>
