<svg width="150" height="150" viewBox="0 0 150 150" fill="none" xmlns="http://www.w3.org/2000/svg">
<rect width="150" height="150" fill="white"/>
<path d="M40.06 123V29.62H74.64C85.9333 29.62 94.1 31.9067 99.14 36.48C104.273 40.96 106.84 47.12 106.84 54.96C106.84 58.4133 106.28 61.26 105.16 63.5C104.04 65.74 102.593 67.6067 100.82 69.1C99.14 70.5933 97.4133 71.9 95.64 73.02C100.027 74.5133 103.853 77.1267 107.12 80.86C110.48 84.5933 112.16 89.5867 112.16 95.84C112.16 102.187 110.713 107.367 107.82 111.38C104.927 115.3 100.867 118.24 95.64 120.2C90.5067 122.067 84.58 123 77.86 123H40.06ZM55.46 68.54H76.46C78.8867 68.54 81.22 68.2133 83.46 67.56C85.7 66.9067 87.5667 65.74 89.06 64.06C90.5533 62.2867 91.3 59.6733 91.3 56.22C91.3 50.9 89.8067 47.3067 86.82 45.44C83.9267 43.5733 80.0533 42.64 75.2 42.64H55.46V68.54ZM55.6 110.12H77.72C80.9867 110.12 84.02 109.747 86.82 109C89.7133 108.16 92 106.667 93.68 104.52C95.4533 102.373 96.34 99.2467 96.34 95.14C96.34 91.0333 95.36 88 93.4 86.04C91.5333 83.9867 89.1533 82.6333 86.26 81.98C83.3667 81.3267 80.38 81 77.3 81H55.6V110.12Z" fill="#3A3636"/>
</svg>
