<svg width="2135" height="341" viewBox="0 0 2135 341" fill="none" xmlns="http://www.w3.org/2000/svg">
<path d="M27.36 269C25.44 269 23.712 268.328 22.176 266.984C20.832 265.448 20.16 263.72 20.16 261.8V74.6C20.16 72.488 20.832 70.76 22.176 69.416C23.712 68.072 25.44 67.4 27.36 67.4H65.952C68.064 67.4 69.792 68.072 71.136 69.416C72.672 70.76 73.44 72.488 73.44 74.6V261.8C73.44 263.912 72.672 265.64 71.136 266.984C69.792 268.328 68.064 269 65.952 269H27.36ZM117.567 269C115.455 269 113.727 268.328 112.383 266.984C111.039 265.64 110.367 263.912 110.367 261.8V126.44C110.367 124.328 111.039 122.6 112.383 121.256C113.727 119.912 115.455 119.24 117.567 119.24H150.687C152.799 119.24 154.527 119.912 155.871 121.256C157.407 122.6 158.175 124.328 158.175 126.44V137.384C163.359 131.048 169.983 125.96 178.047 122.12C186.303 118.28 195.615 116.36 205.983 116.36C222.879 116.36 236.607 122.12 247.167 133.64C257.727 144.968 263.007 160.904 263.007 181.448V261.8C263.007 263.72 262.335 265.448 260.991 266.984C259.647 268.328 257.919 269 255.807 269H219.519C217.599 269 215.871 268.328 214.335 266.984C212.991 265.448 212.319 263.72 212.319 261.8V183.176C212.319 174.152 210.111 167.24 205.695 162.44C201.279 157.448 194.943 154.952 186.687 154.952C178.623 154.952 172.287 157.448 167.679 162.44C163.071 167.24 160.767 174.152 160.767 183.176V261.8C160.767 263.72 160.095 265.448 158.751 266.984C157.407 268.328 155.679 269 153.567 269H117.567ZM317.934 269C316.014 269 314.286 268.328 312.75 266.984C311.406 265.448 310.734 263.72 310.734 261.8V156.968H288.846C286.734 156.968 285.006 156.296 283.662 154.952C282.318 153.608 281.646 151.88 281.646 149.768V126.44C281.646 124.328 282.318 122.6 283.662 121.256C285.006 119.912 286.734 119.24 288.846 119.24H310.734V110.024C310.734 91.016 316.11 77.288 326.862 68.84C337.806 60.2 353.454 55.88 373.806 55.88H447.534C449.646 55.88 451.374 56.552 452.718 57.896C454.062 59.24 454.734 60.968 454.734 63.08V86.408C454.734 88.328 454.062 90.056 452.718 91.592C451.374 92.936 449.646 93.608 447.534 93.608H376.11C369.774 93.608 365.262 95.144 362.574 98.216C359.886 101.096 358.542 105.512 358.542 111.464V119.24H447.534C449.646 119.24 451.374 119.912 452.718 121.256C454.062 122.6 454.734 124.328 454.734 126.44V261.8C454.734 263.72 454.062 265.448 452.718 266.984C451.374 268.328 449.646 269 447.534 269H414.126C412.206 269 410.478 268.328 408.942 266.984C407.598 265.448 406.926 263.72 406.926 261.8V156.968H358.542V261.8C358.542 263.72 357.87 265.448 356.526 266.984C355.182 268.328 353.454 269 351.342 269H317.934ZM495.567 269C493.455 269 491.727 268.328 490.383 266.984C489.039 265.64 488.367 263.912 488.367 261.8V126.44C488.367 124.328 489.039 122.6 490.383 121.256C491.727 119.912 493.455 119.24 495.567 119.24H528.687C530.799 119.24 532.527 119.912 533.871 121.256C535.407 122.6 536.175 124.328 536.175 126.44V137.384C541.359 131.048 547.983 125.96 556.047 122.12C564.303 118.28 573.615 116.36 583.983 116.36C600.879 116.36 614.607 122.12 625.167 133.64C635.727 144.968 641.007 160.904 641.007 181.448V261.8C641.007 263.72 640.335 265.448 638.991 266.984C637.647 268.328 635.919 269 633.807 269H597.519C595.599 269 593.871 268.328 592.335 266.984C590.991 265.448 590.319 263.72 590.319 261.8V183.176C590.319 174.152 588.111 167.24 583.695 162.44C579.279 157.448 572.943 154.952 564.687 154.952C556.623 154.952 550.287 157.448 545.679 162.44C541.071 167.24 538.767 174.152 538.767 183.176V261.8C538.767 263.72 538.095 265.448 536.751 266.984C535.407 268.328 533.679 269 531.567 269H495.567ZM680.342 97.64C678.23 97.64 676.502 96.968 675.158 95.624C673.814 94.28 673.142 92.552 673.142 90.44V64.52C673.142 62.408 673.814 60.68 675.158 59.336C676.502 57.992 678.23 57.32 680.342 57.32H714.902C717.014 57.32 718.742 57.992 720.086 59.336C721.43 60.68 722.102 62.408 722.102 64.52V90.44C722.102 92.552 721.43 94.28 720.086 95.624C718.742 96.968 717.014 97.64 714.902 97.64H680.342ZM680.63 269C678.518 269 676.79 268.328 675.445 266.984C674.102 265.64 673.43 263.912 673.43 261.8V126.44C673.43 124.328 674.102 122.6 675.445 121.256C676.79 119.912 678.518 119.24 680.63 119.24H714.614C716.726 119.24 718.454 119.912 719.798 121.256C721.142 122.6 721.814 124.328 721.814 126.44V261.8C721.814 263.72 721.142 265.448 719.798 266.984C718.454 268.328 716.726 269 714.614 269H680.63ZM1324.67 271.88C1306.43 271.88 1290.78 269.192 1277.73 263.816C1264.67 258.44 1254.78 251.432 1248.06 242.792C1241.54 233.96 1238.08 224.36 1237.7 213.992C1237.7 212.456 1238.27 211.112 1239.42 209.96C1240.77 208.616 1242.3 207.944 1244.03 207.944H1280.32C1282.62 207.944 1284.45 208.424 1285.79 209.384C1287.33 210.152 1288.86 211.4 1290.4 213.128C1292.9 218.12 1296.93 222.248 1302.5 225.512C1308.06 228.776 1315.46 230.408 1324.67 230.408C1335.62 230.408 1343.97 228.68 1349.73 225.224C1355.49 221.768 1358.37 217.064 1358.37 211.112C1358.37 206.888 1356.83 203.432 1353.76 200.744C1350.88 198.056 1346.27 195.656 1339.94 193.544C1333.6 191.432 1324.19 189.032 1311.71 186.344C1288.67 181.544 1271.39 174.536 1259.87 165.32C1248.54 155.912 1242.88 142.568 1242.88 125.288C1242.88 113.576 1246.14 103.112 1252.67 93.896C1259.2 84.68 1268.51 77.48 1280.61 72.296C1292.7 67.112 1306.82 64.52 1322.94 64.52C1339.65 64.52 1354.14 67.4 1366.43 73.16C1378.72 78.92 1388.03 86.216 1394.37 95.048C1400.9 103.688 1404.35 112.232 1404.74 120.68C1404.74 122.408 1404.16 123.848 1403.01 125C1401.86 126.152 1400.42 126.728 1398.69 126.728H1360.67C1358.37 126.728 1356.45 126.344 1354.91 125.576C1353.57 124.808 1352.32 123.56 1351.17 121.832C1350.02 117.416 1346.85 113.672 1341.66 110.6C1336.67 107.528 1330.43 105.992 1322.94 105.992C1314.3 105.992 1307.68 107.528 1303.07 110.6C1298.46 113.672 1296.16 118.184 1296.16 124.136C1296.16 128.168 1297.41 131.528 1299.9 134.216C1302.59 136.904 1306.82 139.4 1312.58 141.704C1318.53 143.816 1326.98 146.024 1337.92 148.328C1355.78 151.592 1369.98 155.72 1380.54 160.712C1391.3 165.512 1399.17 171.848 1404.16 179.72C1409.15 187.4 1411.65 197.096 1411.65 208.808C1411.65 221.672 1407.9 232.904 1400.42 242.504C1393.12 251.912 1382.85 259.208 1369.6 264.392C1356.54 269.384 1341.57 271.88 1324.67 271.88ZM1506.42 271.88C1483.38 271.88 1465.24 265.64 1451.99 253.16C1438.74 240.68 1431.83 222.536 1431.26 198.728V188.648C1432.02 165.992 1439.03 148.328 1452.28 135.656C1465.72 122.792 1483.67 116.36 1506.14 116.36C1522.46 116.36 1536.18 119.72 1547.32 126.44C1558.65 132.968 1567.1 141.992 1572.66 153.512C1578.42 165.032 1581.3 178.28 1581.3 193.256V200.168C1581.3 202.088 1580.63 203.816 1579.29 205.352C1577.94 206.696 1576.22 207.368 1574.1 207.368H1481.94V209.384C1482.33 218.408 1484.54 225.704 1488.57 231.272C1492.6 236.84 1498.46 239.624 1506.14 239.624C1510.94 239.624 1514.87 238.664 1517.94 236.744C1521.02 234.632 1523.8 232.136 1526.3 229.256C1528.02 227.144 1529.37 225.896 1530.33 225.512C1531.48 224.936 1533.21 224.648 1535.51 224.648H1571.22C1572.95 224.648 1574.39 225.224 1575.54 226.376C1576.89 227.336 1577.56 228.68 1577.56 230.408C1577.56 235.4 1574.68 241.16 1568.92 247.688C1563.35 254.216 1555.19 259.88 1544.44 264.68C1533.69 269.48 1521.02 271.88 1506.42 271.88ZM1530.62 178.856V178.28C1530.62 168.872 1528.41 161.48 1523.99 156.104C1519.77 150.536 1513.82 147.752 1506.14 147.752C1498.65 147.752 1492.7 150.536 1488.28 156.104C1484.06 161.48 1481.94 168.872 1481.94 178.28V178.856H1530.62ZM1615.5 269C1613.39 269 1611.66 268.328 1610.32 266.984C1608.98 265.64 1608.3 263.912 1608.3 261.8V126.44C1608.3 124.328 1608.98 122.6 1610.32 121.256C1611.66 119.912 1613.39 119.24 1615.5 119.24H1648.62C1650.74 119.24 1652.46 120.008 1653.81 121.544C1655.34 122.888 1656.11 124.52 1656.11 126.44V137.96C1666.67 125.48 1680.88 119.24 1698.74 119.24H1711.41C1713.52 119.24 1715.25 119.912 1716.59 121.256C1717.94 122.6 1718.61 124.328 1718.61 126.44V156.104C1718.61 158.024 1717.94 159.752 1716.59 161.288C1715.25 162.632 1713.52 163.304 1711.41 163.304H1683.47C1675.6 163.304 1669.46 165.512 1665.04 169.928C1660.82 174.152 1658.7 180.2 1658.7 188.072V261.8C1658.7 263.912 1657.94 265.64 1656.4 266.984C1655.06 268.328 1653.33 269 1651.22 269H1615.5ZM1746 97.64C1743.89 97.64 1742.16 96.968 1740.81 95.624C1739.47 94.28 1738.8 92.552 1738.8 90.44V64.52C1738.8 62.408 1739.47 60.68 1740.81 59.336C1742.16 57.992 1743.89 57.32 1746 57.32H1780.56C1782.67 57.32 1784.4 57.992 1785.74 59.336C1787.09 60.68 1787.76 62.408 1787.76 64.52V90.44C1787.76 92.552 1787.09 94.28 1785.74 95.624C1784.4 96.968 1782.67 97.64 1780.56 97.64H1746ZM1746.29 269C1744.17 269 1742.45 268.328 1741.1 266.984C1739.76 265.64 1739.09 263.912 1739.09 261.8V126.44C1739.09 124.328 1739.76 122.6 1741.1 121.256C1742.45 119.912 1744.17 119.24 1746.29 119.24H1780.27C1782.38 119.24 1784.11 119.912 1785.45 121.256C1786.8 122.6 1787.47 124.328 1787.47 126.44V261.8C1787.47 263.72 1786.8 265.448 1785.45 266.984C1784.11 268.328 1782.38 269 1780.27 269H1746.29ZM1890.61 271.88C1867.57 271.88 1849.43 265.64 1836.18 253.16C1822.93 240.68 1816.02 222.536 1815.44 198.728V188.648C1816.21 165.992 1823.22 148.328 1836.47 135.656C1849.91 122.792 1867.86 116.36 1890.32 116.36C1906.64 116.36 1920.37 119.72 1931.51 126.44C1942.84 132.968 1951.28 141.992 1956.85 153.512C1962.61 165.032 1965.49 178.28 1965.49 193.256V200.168C1965.49 202.088 1964.82 203.816 1963.48 205.352C1962.13 206.696 1960.4 207.368 1958.29 207.368H1866.13V209.384C1866.52 218.408 1868.72 225.704 1872.76 231.272C1876.79 236.84 1882.64 239.624 1890.32 239.624C1895.12 239.624 1899.06 238.664 1902.13 236.744C1905.2 234.632 1907.99 232.136 1910.48 229.256C1912.21 227.144 1913.56 225.896 1914.52 225.512C1915.67 224.936 1917.4 224.648 1919.7 224.648H1955.41C1957.14 224.648 1958.58 225.224 1959.73 226.376C1961.08 227.336 1961.75 228.68 1961.75 230.408C1961.75 235.4 1958.87 241.16 1953.11 247.688C1947.54 254.216 1939.38 259.88 1928.63 264.68C1917.88 269.48 1905.2 271.88 1890.61 271.88ZM1914.8 178.856V178.28C1914.8 168.872 1912.6 161.48 1908.18 156.104C1903.96 150.536 1898 147.752 1890.32 147.752C1882.84 147.752 1876.88 150.536 1872.47 156.104C1868.24 161.48 1866.13 168.872 1866.13 178.28V178.856H1914.8ZM2054.12 271.88C2038.57 271.88 2025.52 269.672 2014.96 265.256C2004.59 260.84 1996.91 255.56 1991.92 249.416C1986.92 243.272 1984.43 237.8 1984.43 233C1984.43 231.08 1985.1 229.544 1986.44 228.392C1987.98 227.048 1989.61 226.376 1991.34 226.376H2024.17C2025.32 226.376 2026.38 226.856 2027.34 227.816C2029.64 229.352 2031.37 230.6 2032.52 231.56C2036.75 234.632 2040.4 236.936 2043.47 238.472C2046.73 239.816 2050.67 240.488 2055.28 240.488C2060.84 240.488 2065.36 239.432 2068.81 237.32C2072.46 235.016 2074.28 231.848 2074.28 227.816C2074.28 224.552 2073.32 221.96 2071.4 220.04C2069.68 218.12 2066.22 216.296 2061.04 214.568C2055.85 212.648 2047.98 210.632 2037.42 208.52C2021.48 205.256 2009.2 199.976 2000.56 192.68C1992.11 185.192 1987.88 175.208 1987.88 162.728C1987.88 154.856 1990.38 147.368 1995.37 140.264C2000.36 133.16 2007.76 127.4 2017.55 122.984C2027.53 118.568 2039.34 116.36 2052.97 116.36C2066.6 116.36 2078.51 118.472 2088.68 122.696C2098.86 126.92 2106.54 132.104 2111.72 138.248C2117.1 144.2 2119.79 149.672 2119.79 154.664C2119.79 156.392 2119.12 157.928 2117.77 159.272C2116.62 160.616 2115.18 161.288 2113.45 161.288H2083.5C2081.96 161.288 2080.52 160.808 2079.18 159.848C2076.68 158.504 2074.48 157.064 2072.56 155.528C2069.29 153.032 2066.22 151.112 2063.34 149.768C2060.46 148.424 2056.91 147.752 2052.68 147.752C2047.69 147.752 2043.66 148.904 2040.59 151.208C2037.71 153.512 2036.27 156.488 2036.27 160.136C2036.27 163.016 2037.04 165.416 2038.57 167.336C2040.3 169.256 2043.76 171.176 2048.94 173.096C2054.32 174.824 2062.19 176.648 2072.56 178.568C2091.18 181.832 2104.72 187.592 2113.16 195.848C2121.8 204.104 2126.12 213.8 2126.12 224.936C2126.12 239.144 2119.79 250.568 2107.12 259.208C2094.44 267.656 2076.78 271.88 2054.12 271.88Z" fill="white"/>
<path fill-rule="evenodd" clip-rule="evenodd" d="M827.743 100.334C875.467 100.334 907.64 147.965 907.64 147.965C921.581 129.172 955.9 100.334 990.218 100.334C1024.54 100.334 1078.06 134.564 1076.98 190.273C1075.91 245.981 1014.34 269 995.226 269C957.213 269 931.448 244.398 915.05 228.741L915.05 228.74L915.048 228.739L915.048 228.739C912.439 226.247 910.066 223.982 907.92 222.079C905.532 224.15 903.107 226.287 900.647 228.456L900.646 228.457L900.643 228.459C879.031 247.513 854.659 269 827.743 269C797.802 269 756.995 243.022 749.156 204.353H735C729.477 204.353 725 199.876 725 194.353V175.639C725 170.116 729.477 165.639 735 165.639H751.087C760.346 129.601 788.655 100.334 827.743 100.334ZM826.932 227.411C810.861 226.943 800.134 217.237 794.927 204.353H815.598C821.121 204.353 825.598 199.876 825.598 194.353V175.639C825.598 170.116 821.121 165.639 815.598 165.639H798.085C806.274 153.821 820.492 145.071 833.106 144.632C848.549 144.095 874.574 172.151 885.656 186.246C873.68 202.354 845.378 227.948 826.932 227.411ZM950.268 165.641C958.811 154.108 970.082 143.598 988.008 144.233C1007.23 144.914 1019.17 153.769 1025.02 165.652C1024.79 165.644 1024.55 165.639 1024.31 165.639H950.551C950.457 165.639 950.362 165.64 950.268 165.641ZM948.071 204.196C957.228 216.994 968.816 229.01 988.008 229.01C1004.22 229.01 1018 218.153 1024.81 204.347C1024.64 204.351 1024.48 204.353 1024.31 204.353H950.551C949.711 204.353 948.883 204.3 948.071 204.196Z" fill="white"/>
</svg>
