<svg width="118" height="41" viewBox="0 0 118 41" fill="none" xmlns="http://www.w3.org/2000/svg">
<path d="M4.45215 34.1362H0.777832L9.93799 7.11719H13.6123L4.45215 34.1362ZM13.3047 34.1362H9.63037L18.7905 7.11719H22.4648L13.3047 34.1362ZM29.3862 13.5088L29.54 15.645C30.8617 13.993 32.6333 13.167 34.855 13.167C36.8146 13.167 38.2729 13.7424 39.23 14.8931C40.187 16.0438 40.6769 17.7642 40.6997 20.0542V32H35.7607V20.1738C35.7607 19.1257 35.5329 18.368 35.0771 17.9009C34.6214 17.4224 33.8638 17.1831 32.8042 17.1831C31.4142 17.1831 30.3717 17.7756 29.6768 18.9604V32H24.7378V13.5088H29.3862ZM54.4741 26.8901C54.4741 26.2863 54.1722 25.8135 53.5684 25.4717C52.9759 25.1185 52.0189 24.8052 50.6973 24.5317C46.2995 23.6089 44.1006 21.7404 44.1006 18.9263C44.1006 17.2856 44.7785 15.9185 46.1343 14.8247C47.5015 13.7196 49.2845 13.167 51.4834 13.167C53.8304 13.167 55.7046 13.7196 57.106 14.8247C58.5187 15.9299 59.2251 17.3654 59.2251 19.1313H54.2861C54.2861 18.425 54.0583 17.8439 53.6025 17.3882C53.1468 16.9211 52.4347 16.6875 51.4663 16.6875C50.6346 16.6875 49.9909 16.8755 49.5352 17.2515C49.0794 17.6274 48.8516 18.106 48.8516 18.687C48.8516 19.2339 49.1079 19.6782 49.6206 20.02C50.1447 20.3504 51.022 20.641 52.2524 20.8916C53.4829 21.1309 54.5197 21.4043 55.3628 21.7119C57.9718 22.6689 59.2764 24.3267 59.2764 26.6851C59.2764 28.3713 58.5529 29.7384 57.106 30.7866C55.659 31.8234 53.7905 32.3418 51.5005 32.3418C49.951 32.3418 48.5724 32.0684 47.3647 31.5215C46.1685 30.9632 45.2285 30.2056 44.5449 29.2485C43.8613 28.2801 43.5195 27.2376 43.5195 26.1211H48.2021C48.2477 26.9984 48.5724 27.6706 49.1763 28.1377C49.7801 28.6048 50.589 28.8384 51.603 28.8384C52.5487 28.8384 53.2607 28.6618 53.7393 28.3086C54.2292 27.944 54.4741 27.4712 54.4741 26.8901ZM70.9829 32.3418C68.2713 32.3418 66.061 31.5101 64.3521 29.8467C62.6545 28.1833 61.8057 25.9673 61.8057 23.1987V22.7202C61.8057 20.8631 62.1646 19.2054 62.8823 17.7471C63.6001 16.2773 64.6141 15.1494 65.9243 14.3633C67.2459 13.5658 68.7498 13.167 70.436 13.167C72.9653 13.167 74.9535 13.9645 76.4004 15.5596C77.8587 17.1546 78.5879 19.4162 78.5879 22.3442V24.3608H66.813C66.9725 25.5685 67.451 26.5369 68.2485 27.2661C69.0575 27.9953 70.0771 28.3599 71.3076 28.3599C73.2103 28.3599 74.6971 27.6706 75.7681 26.292L78.1948 29.0093C77.4543 30.0575 76.4517 30.8778 75.187 31.4702C73.9224 32.0513 72.521 32.3418 70.9829 32.3418ZM70.4189 17.166C69.4391 17.166 68.6416 17.4964 68.0264 18.1572C67.4225 18.818 67.0352 19.7637 66.8643 20.9941H73.7344V20.6011C73.7116 19.5073 73.4154 18.6642 72.8457 18.0718C72.276 17.4679 71.4671 17.166 70.4189 17.166ZM91.7983 18.1401C91.1261 18.049 90.5337 18.0034 90.021 18.0034C88.1525 18.0034 86.9277 18.6357 86.3467 19.9004V32H81.4077V13.5088H86.0732L86.21 15.7134C87.2012 14.0158 88.5741 13.167 90.3286 13.167C90.8755 13.167 91.3882 13.241 91.8667 13.3892L91.7983 18.1401ZM101.403 25.0103L104.821 13.5088H110.119L102.685 34.8711L102.274 35.8452C101.169 38.2606 99.3464 39.4683 96.8057 39.4683C96.0879 39.4683 95.3587 39.36 94.6182 39.1436V35.4009L95.3701 35.418C96.3044 35.418 96.9993 35.2756 97.4551 34.9907C97.9222 34.7059 98.2868 34.2331 98.5488 33.5723L99.1299 32.0513L92.6528 13.5088H97.9678L101.403 25.0103ZM109.452 29.5732C109.452 28.7871 109.714 28.1491 110.238 27.6592C110.774 27.1693 111.44 26.9243 112.238 26.9243C113.047 26.9243 113.713 27.1693 114.237 27.6592C114.773 28.1491 115.041 28.7871 115.041 29.5732C115.041 30.348 114.778 30.9803 114.254 31.4702C113.73 31.9487 113.058 32.188 112.238 32.188C111.429 32.188 110.762 31.9487 110.238 31.4702C109.714 30.9803 109.452 30.348 109.452 29.5732Z" fill="white"/>
</svg>
