<svg width="882" height="34" viewBox="0 0 882 34" fill="none" xmlns="http://www.w3.org/2000/svg">
<path d="M198.817 28.0831C177.23 24.8475 138.201 21.5567 112.082 28.0831C83.9855 35.1038 52.8345 28.0831 33.2888 24.233C13.7431 20.3829 0 28.0831 0 28.0831V0H882V33.745C874.372 34.5697 858.507 26.4884 839.55 28.0831C806.202 30.8881 804.261 31.0273 772.056 31.0273C754.24 31.0273 718.624 31.6864 693.873 31.0273C625.789 29.2142 624.852 24.8406 571.712 31.0273C518.572 37.2139 485.589 32.5089 436.725 28.0831C387.86 23.6573 353.35 21.0425 309.677 28.0831C281.58 32.6126 227.524 32.3861 198.817 28.0831Z" fill="#FF0000"/>
</svg>
